# xmcd CD database file
#
# Track frame offsets:
#	150
#	17745
#	38377
#	55810
#	74430
#	93687
#	105065
#	122940
#	142585
#	162525
#	175615
#	193445
#	214082
#	229537
#
# Disc length: 3620 seconds
#
# Revision: 0
# Processed by: cddbd v1.5.1PL0 Copyright (c) Steve Scherf et al.
# Submitted via: CDex 1.51
#
DISCID=b70e220e
DTITLE=Various Artist - Carnaval Mix
DYEAR=2000
DGENRE=Salsa
TTITLE0=Sin Fundamento (El pito del carnaval)
TTITLE1=Carnaval Mix (Radio Version)
TTITLE2=La Sabrosa (Depende)
TTITLE3=Corinto Band (Cuentame al oido)
TTITLE4=Sobremarcha Y Familia (Esta Noche)
TTITLE5=Gomeray (Mamasita)
TTITLE6=Fat Boys Del Merengue (Aplastando)
TTITLE7=Tonny Tun Tun (Cuando acaba el placer)
TTITLE8=Edwin Rivera (No quiero verla)
TTITLE9=La Sabrosa (Masculino y femenino)
TTITLE10=Corinto Band (Ole Ole)
TTITLE11=Sobremarcha Y Familia (Tu me camelas)
TTITLE12=Gomeray (Morenaza)
TTITLE13=Carnaval Mix (Full version)
EXTD=YEAR: 2000
EXTT0=
EXTT1=
EXTT2=
EXTT3=
EXTT4=
EXTT5=
EXTT6=
EXTT7=
EXTT8=
EXTT9=
EXTT10=
EXTT11=
EXTT12=
EXTT13=
PLAYORDER=
